<mxfile host="65bd71144e">
    <diagram id="lQqjIacscJslqrjan3Mh" name="Page-1">
        <mxGraphModel dx="1216" dy="528" grid="1" gridSize="10" guides="1" tooltips="1" connect="1" arrows="1" fold="1" page="1" pageScale="1" pageWidth="850" pageHeight="1100" math="0" shadow="0">
            <root>
                <mxCell id="0"/>
                <mxCell id="1" parent="0"/>
                <mxCell id="8" value="app.py" style="shape=umlLifeline;perimeter=lifelinePerimeter;whiteSpace=wrap;html=1;container=1;collapsible=0;recursiveResize=0;outlineConnect=0;" parent="1" vertex="1">
                    <mxGeometry x="210" y="130" width="100" height="1240" as="geometry"/>
                </mxCell>
                <mxCell id="14" value="" style="endArrow=open;startArrow=none;endFill=0;startFill=0;endSize=8;html=1;verticalAlign=bottom;labelBackgroundColor=none;strokeWidth=1;" parent="8" target="10" edge="1">
                    <mxGeometry width="160" relative="1" as="geometry">
                        <mxPoint x="50" y="80" as="sourcePoint"/>
                        <mxPoint x="170" y="80" as="targetPoint"/>
                    </mxGeometry>
                </mxCell>
                <mxCell id="19" value="1. load_labels" style="edgeLabel;html=1;align=center;verticalAlign=middle;resizable=0;points=[];" parent="14" vertex="1" connectable="0">
                    <mxGeometry x="-0.3987" y="4" relative="1" as="geometry">
                        <mxPoint x="2" y="-6" as="offset"/>
                    </mxGeometry>
                </mxCell>
                <mxCell id="24" value="" style="html=1;points=[];perimeter=orthogonalPerimeter;" parent="8" vertex="1">
                    <mxGeometry x="45" y="80" width="10" height="1030" as="geometry"/>
                </mxCell>
                <mxCell id="37" value="" style="endArrow=open;startArrow=none;endFill=0;startFill=0;endSize=8;html=1;verticalAlign=bottom;labelBackgroundColor=none;strokeWidth=1;" parent="8" target="45" edge="1">
                    <mxGeometry width="160" relative="1" as="geometry">
                        <mxPoint x="50" y="360" as="sourcePoint"/>
                        <mxPoint x="210" y="360" as="targetPoint"/>
                    </mxGeometry>
                </mxCell>
                <mxCell id="38" value="2. __init__, initialize the object" style="edgeLabel;html=1;align=center;verticalAlign=middle;resizable=0;points=[];" parent="37" vertex="1" connectable="0">
                    <mxGeometry x="-0.8179" y="2" relative="1" as="geometry">
                        <mxPoint x="63" y="-8" as="offset"/>
                    </mxGeometry>
                </mxCell>
                <mxCell id="17" value="" style="shape=umlDestroy;dashed=0;" parent="8" vertex="1">
                    <mxGeometry x="30" y="1200" width="40" height="40" as="geometry"/>
                </mxCell>
                <mxCell id="75" value="" style="endArrow=open;startArrow=none;endFill=0;startFill=0;endSize=8;html=1;verticalAlign=bottom;labelBackgroundColor=none;strokeWidth=1;" parent="8" target="45" edge="1">
                    <mxGeometry width="160" relative="1" as="geometry">
                        <mxPoint x="45" y="1060" as="sourcePoint"/>
                        <mxPoint x="275" y="1060" as="targetPoint"/>
                    </mxGeometry>
                </mxCell>
                <mxCell id="76" value="3. graph" style="edgeLabel;html=1;align=center;verticalAlign=middle;resizable=0;points=[];" parent="75" vertex="1" connectable="0">
                    <mxGeometry x="-0.8179" y="2" relative="1" as="geometry">
                        <mxPoint x="15" y="-8" as="offset"/>
                    </mxGeometry>
                </mxCell>
                <mxCell id="10" value="load_labels: audacity.py" style="shape=umlLifeline;perimeter=lifelinePerimeter;whiteSpace=wrap;html=1;container=1;collapsible=0;recursiveResize=0;outlineConnect=0;lifelineDashed=0;" parent="1" vertex="1">
                    <mxGeometry x="370" y="130" width="100" height="340" as="geometry"/>
                </mxCell>
                <mxCell id="27" value="" style="endArrow=open;startArrow=none;endFill=0;startFill=0;endSize=8;html=1;verticalAlign=bottom;labelBackgroundColor=none;strokeWidth=1;entryX=1.051;entryY=0.915;entryDx=0;entryDy=0;entryPerimeter=0;" parent="10" target="84" edge="1">
                    <mxGeometry width="160" relative="1" as="geometry">
                        <mxPoint x="50.5" y="160" as="sourcePoint"/>
                        <mxPoint x="51" y="190" as="targetPoint"/>
                        <Array as="points">
                            <mxPoint x="140" y="160"/>
                            <mxPoint x="140" y="290"/>
                        </Array>
                    </mxGeometry>
                </mxCell>
                <mxCell id="28" value="validate_segmentations" style="edgeLabel;html=1;align=center;verticalAlign=middle;resizable=0;points=[];" parent="27" vertex="1" connectable="0">
                    <mxGeometry x="-0.1202" relative="1" as="geometry">
                        <mxPoint x="-14" y="-52" as="offset"/>
                    </mxGeometry>
                </mxCell>
                <mxCell id="29" value="" style="html=1;points=[];perimeter=orthogonalPerimeter;" parent="10" vertex="1">
                    <mxGeometry x="45" y="80" width="10" height="250" as="geometry"/>
                </mxCell>
                <mxCell id="35" value="" style="endArrow=block;startArrow=none;endFill=0;startFill=0;endSize=8;html=1;verticalAlign=bottom;dashed=1;labelBackgroundColor=none;" parent="10" target="8" edge="1">
                    <mxGeometry width="160" relative="1" as="geometry">
                        <mxPoint x="40" y="330" as="sourcePoint"/>
                        <mxPoint x="-120" y="330" as="targetPoint"/>
                    </mxGeometry>
                </mxCell>
                <mxCell id="88" value="the labels" style="edgeLabel;html=1;align=center;verticalAlign=middle;resizable=0;points=[];" vertex="1" connectable="0" parent="35">
                    <mxGeometry x="-0.2062" relative="1" as="geometry">
                        <mxPoint as="offset"/>
                    </mxGeometry>
                </mxCell>
                <mxCell id="83" value="" style="html=1;points=[];perimeter=orthogonalPerimeter;" vertex="1" parent="10">
                    <mxGeometry x="50" y="110" width="10" height="20" as="geometry"/>
                </mxCell>
                <mxCell id="25" value="" style="endArrow=open;startArrow=none;endFill=0;startFill=0;endSize=8;html=1;verticalAlign=bottom;labelBackgroundColor=none;strokeWidth=1;exitX=1.007;exitY=0.042;exitDx=0;exitDy=0;exitPerimeter=0;" parent="10" edge="1" source="29">
                    <mxGeometry width="160" relative="1" as="geometry">
                        <mxPoint x="50" y="90" as="sourcePoint"/>
                        <mxPoint x="59.5" y="120" as="targetPoint"/>
                        <Array as="points">
                            <mxPoint x="110" y="90"/>
                            <mxPoint x="110" y="120"/>
                        </Array>
                    </mxGeometry>
                </mxCell>
                <mxCell id="26" value="find_greatest_number" style="edgeLabel;html=1;align=center;verticalAlign=middle;resizable=0;points=[];" parent="25" vertex="1" connectable="0">
                    <mxGeometry x="-0.1202" relative="1" as="geometry">
                        <mxPoint x="10" y="-16" as="offset"/>
                    </mxGeometry>
                </mxCell>
                <mxCell id="84" value="" style="html=1;points=[];perimeter=orthogonalPerimeter;" vertex="1" parent="10">
                    <mxGeometry x="50" y="180" width="10" height="120" as="geometry"/>
                </mxCell>
                <mxCell id="31" value="" style="endArrow=open;startArrow=none;endFill=0;startFill=0;endSize=8;html=1;verticalAlign=bottom;labelBackgroundColor=none;strokeWidth=1;" parent="10" edge="1">
                    <mxGeometry width="160" relative="1" as="geometry">
                        <mxPoint x="60.56999999999999" y="190" as="sourcePoint"/>
                        <mxPoint x="59.998571428571324" y="220" as="targetPoint"/>
                        <Array as="points">
                            <mxPoint x="90" y="190"/>
                            <mxPoint x="90" y="220"/>
                        </Array>
                    </mxGeometry>
                </mxCell>
                <mxCell id="32" value="format_line" style="edgeLabel;html=1;align=center;verticalAlign=middle;resizable=0;points=[];" parent="31" vertex="1" connectable="0">
                    <mxGeometry x="-0.1202" relative="1" as="geometry">
                        <mxPoint x="10" y="-20" as="offset"/>
                    </mxGeometry>
                </mxCell>
                <mxCell id="33" value="" style="endArrow=open;startArrow=none;endFill=0;startFill=0;endSize=8;html=1;verticalAlign=bottom;labelBackgroundColor=none;strokeWidth=1;" parent="10" edge="1">
                    <mxGeometry width="160" relative="1" as="geometry">
                        <mxPoint x="60.569999999999936" y="240" as="sourcePoint"/>
                        <mxPoint x="59.99857142857127" y="270" as="targetPoint"/>
                        <Array as="points">
                            <mxPoint x="90" y="240"/>
                            <mxPoint x="90" y="270"/>
                        </Array>
                    </mxGeometry>
                </mxCell>
                <mxCell id="34" value="is_number" style="edgeLabel;html=1;align=center;verticalAlign=middle;resizable=0;points=[];" parent="33" vertex="1" connectable="0">
                    <mxGeometry x="-0.1202" relative="1" as="geometry">
                        <mxPoint x="10" y="-20" as="offset"/>
                    </mxGeometry>
                </mxCell>
                <mxCell id="45" value="Deadshot" style="shape=umlLifeline;perimeter=lifelinePerimeter;whiteSpace=wrap;html=1;container=1;collapsible=0;recursiveResize=0;outlineConnect=0;lifelineDashed=0;" parent="1" vertex="1">
                    <mxGeometry x="620" y="380" width="100" height="900" as="geometry"/>
                </mxCell>
                <mxCell id="47" value="" style="html=1;points=[];perimeter=orthogonalPerimeter;" parent="45" vertex="1">
                    <mxGeometry x="45" y="110" width="10" height="660" as="geometry"/>
                </mxCell>
                <mxCell id="51" value="" style="endArrow=open;startArrow=none;endFill=0;startFill=0;endSize=8;html=1;verticalAlign=bottom;labelBackgroundColor=none;strokeWidth=1;" parent="45" edge="1" target="92">
                    <mxGeometry width="160" relative="1" as="geometry">
                        <mxPoint x="55.569999999999936" y="140" as="sourcePoint"/>
                        <mxPoint x="54.99857142857127" y="170" as="targetPoint"/>
                        <Array as="points">
                            <mxPoint x="115.57000000000005" y="140"/>
                            <mxPoint x="115.57000000000005" y="170"/>
                        </Array>
                    </mxGeometry>
                </mxCell>
                <mxCell id="52" value="__fill_label_maps" style="edgeLabel;html=1;align=center;verticalAlign=middle;resizable=0;points=[];" parent="51" vertex="1" connectable="0">
                    <mxGeometry x="-0.1202" relative="1" as="geometry">
                        <mxPoint x="10" y="-16" as="offset"/>
                    </mxGeometry>
                </mxCell>
                <mxCell id="56" value="" style="endArrow=open;startArrow=none;endFill=0;startFill=0;endSize=8;html=1;verticalAlign=bottom;labelBackgroundColor=none;strokeWidth=1;" parent="45" edge="1" target="100">
                    <mxGeometry width="160" relative="1" as="geometry">
                        <mxPoint x="55.569999999999936" y="260" as="sourcePoint"/>
                        <mxPoint x="54.99857142857127" y="290" as="targetPoint"/>
                        <Array as="points">
                            <mxPoint x="115.57000000000005" y="260"/>
                            <mxPoint x="115.57000000000005" y="290"/>
                        </Array>
                    </mxGeometry>
                </mxCell>
                <mxCell id="57" value="__fill_observer_maps" style="edgeLabel;html=1;align=center;verticalAlign=middle;resizable=0;points=[];" parent="56" vertex="1" connectable="0">
                    <mxGeometry x="-0.1202" relative="1" as="geometry">
                        <mxPoint x="10" y="-16" as="offset"/>
                    </mxGeometry>
                </mxCell>
                <mxCell id="58" value="" style="endArrow=open;startArrow=none;endFill=0;startFill=0;endSize=8;html=1;verticalAlign=bottom;labelBackgroundColor=none;strokeWidth=1;entryX=1.005;entryY=0.974;entryDx=0;entryDy=0;entryPerimeter=0;" parent="45" edge="1" target="74">
                    <mxGeometry width="160" relative="1" as="geometry">
                        <mxPoint x="55.569999999999936" y="360" as="sourcePoint"/>
                        <mxPoint x="54.99857142857127" y="390" as="targetPoint"/>
                        <Array as="points">
                            <mxPoint x="150" y="360"/>
                            <mxPoint x="150" y="740"/>
                        </Array>
                    </mxGeometry>
                </mxCell>
                <mxCell id="59" value="__process" style="edgeLabel;html=1;align=center;verticalAlign=middle;resizable=0;points=[];" parent="58" vertex="1" connectable="0">
                    <mxGeometry x="-0.1202" relative="1" as="geometry">
                        <mxPoint x="-50" y="-164" as="offset"/>
                    </mxGeometry>
                </mxCell>
                <mxCell id="60" value="" style="endArrow=open;startArrow=none;endFill=0;startFill=0;endSize=8;html=1;verticalAlign=bottom;labelBackgroundColor=none;strokeWidth=1;" parent="45" edge="1">
                    <mxGeometry width="160" relative="1" as="geometry">
                        <mxPoint x="60.569999999999936" y="390" as="sourcePoint"/>
                        <mxPoint x="59.99857142857127" y="420" as="targetPoint"/>
                        <Array as="points">
                            <mxPoint x="95" y="390"/>
                            <mxPoint x="95" y="420"/>
                        </Array>
                    </mxGeometry>
                </mxCell>
                <mxCell id="61" value="__compare" style="edgeLabel;html=1;align=center;verticalAlign=middle;resizable=0;points=[];" parent="60" vertex="1" connectable="0">
                    <mxGeometry x="-0.1202" relative="1" as="geometry">
                        <mxPoint x="10" y="-19" as="offset"/>
                    </mxGeometry>
                </mxCell>
                <mxCell id="62" value="" style="endArrow=open;startArrow=none;endFill=0;startFill=0;endSize=8;html=1;verticalAlign=bottom;labelBackgroundColor=none;strokeWidth=1;" parent="45" edge="1">
                    <mxGeometry width="160" relative="1" as="geometry">
                        <mxPoint x="60.569999999999936" y="440" as="sourcePoint"/>
                        <mxPoint x="59.99857142857127" y="470" as="targetPoint"/>
                        <Array as="points">
                            <mxPoint x="95" y="440"/>
                            <mxPoint x="95" y="470"/>
                        </Array>
                    </mxGeometry>
                </mxCell>
                <mxCell id="63" value="__check_integrity" style="edgeLabel;html=1;align=center;verticalAlign=middle;resizable=0;points=[];" parent="62" vertex="1" connectable="0">
                    <mxGeometry x="-0.1202" relative="1" as="geometry">
                        <mxPoint x="20" y="-19" as="offset"/>
                    </mxGeometry>
                </mxCell>
                <mxCell id="64" value="" style="endArrow=open;startArrow=none;endFill=0;startFill=0;endSize=8;html=1;verticalAlign=bottom;labelBackgroundColor=none;strokeWidth=1;" parent="45" edge="1">
                    <mxGeometry width="160" relative="1" as="geometry">
                        <mxPoint x="60.569999999999936" y="520" as="sourcePoint"/>
                        <mxPoint x="59.99857142857127" y="550" as="targetPoint"/>
                        <Array as="points">
                            <mxPoint x="95" y="520"/>
                            <mxPoint x="95" y="550"/>
                        </Array>
                    </mxGeometry>
                </mxCell>
                <mxCell id="65" value="__omh" style="edgeLabel;html=1;align=center;verticalAlign=middle;resizable=0;points=[];" parent="64" vertex="1" connectable="0">
                    <mxGeometry x="-0.1202" relative="1" as="geometry">
                        <mxPoint y="-19" as="offset"/>
                    </mxGeometry>
                </mxCell>
                <mxCell id="70" value="" style="endArrow=open;startArrow=none;endFill=0;startFill=0;endSize=8;html=1;verticalAlign=bottom;labelBackgroundColor=none;strokeWidth=1;" parent="45" edge="1">
                    <mxGeometry width="160" relative="1" as="geometry">
                        <mxPoint x="60.569999999999936" y="570" as="sourcePoint"/>
                        <mxPoint x="59.99857142857127" y="600" as="targetPoint"/>
                        <Array as="points">
                            <mxPoint x="95" y="570"/>
                            <mxPoint x="95" y="600"/>
                        </Array>
                    </mxGeometry>
                </mxCell>
                <mxCell id="71" value="__substractRanges" style="edgeLabel;html=1;align=center;verticalAlign=middle;resizable=0;points=[];" parent="70" vertex="1" connectable="0">
                    <mxGeometry x="-0.1202" relative="1" as="geometry">
                        <mxPoint x="30" y="-19" as="offset"/>
                    </mxGeometry>
                </mxCell>
                <mxCell id="72" value="" style="endArrow=block;startArrow=none;endFill=0;startFill=0;endSize=8;html=1;verticalAlign=bottom;dashed=1;labelBackgroundColor=none;" parent="45" target="8" edge="1">
                    <mxGeometry width="160" relative="1" as="geometry">
                        <mxPoint x="55" y="770" as="sourcePoint"/>
                        <mxPoint x="-95.33333333333348" y="770" as="targetPoint"/>
                    </mxGeometry>
                </mxCell>
                <mxCell id="89" value="the object initialized" style="edgeLabel;html=1;align=center;verticalAlign=middle;resizable=0;points=[];" vertex="1" connectable="0" parent="72">
                    <mxGeometry x="-0.0931" y="2" relative="1" as="geometry">
                        <mxPoint as="offset"/>
                    </mxGeometry>
                </mxCell>
                <mxCell id="73" value="" style="html=1;points=[];perimeter=orthogonalPerimeter;" parent="45" vertex="1">
                    <mxGeometry x="45" y="810" width="10" height="50" as="geometry"/>
                </mxCell>
                <mxCell id="77" value="" style="endArrow=open;startArrow=none;endFill=0;startFill=0;endSize=8;html=1;verticalAlign=bottom;labelBackgroundColor=none;strokeWidth=1;" parent="45" edge="1" target="101">
                    <mxGeometry width="160" relative="1" as="geometry">
                        <mxPoint x="55.569999999999936" y="820" as="sourcePoint"/>
                        <mxPoint x="54.99857142857127" y="850" as="targetPoint"/>
                        <Array as="points">
                            <mxPoint x="100" y="820"/>
                            <mxPoint x="100" y="840"/>
                        </Array>
                    </mxGeometry>
                </mxCell>
                <mxCell id="78" value="kappa" style="edgeLabel;html=1;align=center;verticalAlign=middle;resizable=0;points=[];" parent="77" vertex="1" connectable="0">
                    <mxGeometry x="-0.1202" relative="1" as="geometry">
                        <mxPoint y="-12" as="offset"/>
                    </mxGeometry>
                </mxCell>
                <mxCell id="79" value="" style="endArrow=block;startArrow=none;endFill=0;startFill=0;endSize=8;html=1;verticalAlign=bottom;dashed=1;labelBackgroundColor=none;" parent="45" target="8" edge="1">
                    <mxGeometry width="160" relative="1" as="geometry">
                        <mxPoint x="45" y="860" as="sourcePoint"/>
                        <mxPoint x="-200.32999999999998" y="860" as="targetPoint"/>
                    </mxGeometry>
                </mxCell>
                <mxCell id="90" value="the exported html" style="edgeLabel;html=1;align=center;verticalAlign=middle;resizable=0;points=[];" vertex="1" connectable="0" parent="79">
                    <mxGeometry x="-0.2418" y="2" relative="1" as="geometry">
                        <mxPoint as="offset"/>
                    </mxGeometry>
                </mxCell>
                <mxCell id="53" value="" style="endArrow=open;startArrow=none;endFill=0;startFill=0;endSize=8;html=1;verticalAlign=bottom;labelBackgroundColor=none;strokeWidth=1;" parent="45" edge="1" target="99">
                    <mxGeometry width="160" relative="1" as="geometry">
                        <mxPoint x="55.569999999999936" y="201" as="sourcePoint"/>
                        <mxPoint x="54.99857142857127" y="231" as="targetPoint"/>
                        <Array as="points">
                            <mxPoint x="115.57000000000005" y="201"/>
                            <mxPoint x="115.57000000000005" y="231"/>
                        </Array>
                    </mxGeometry>
                </mxCell>
                <mxCell id="54" value="__fill_ioa_maps" style="edgeLabel;html=1;align=center;verticalAlign=middle;resizable=0;points=[];" parent="53" vertex="1" connectable="0">
                    <mxGeometry x="-0.1202" relative="1" as="geometry">
                        <mxPoint x="10" y="-16" as="offset"/>
                    </mxGeometry>
                </mxCell>
                <mxCell id="66" value="" style="endArrow=open;startArrow=none;endFill=0;startFill=0;endSize=8;html=1;verticalAlign=bottom;labelBackgroundColor=none;strokeWidth=1;" parent="45" edge="1">
                    <mxGeometry width="160" relative="1" as="geometry">
                        <mxPoint x="60.569999999999936" y="640" as="sourcePoint"/>
                        <mxPoint x="59.99857142857127" y="670" as="targetPoint"/>
                        <Array as="points">
                            <mxPoint x="95" y="640"/>
                            <mxPoint x="95" y="670"/>
                        </Array>
                    </mxGeometry>
                </mxCell>
                <mxCell id="67" value="__upsample" style="edgeLabel;html=1;align=center;verticalAlign=middle;resizable=0;points=[];" parent="66" vertex="1" connectable="0">
                    <mxGeometry x="-0.1202" relative="1" as="geometry">
                        <mxPoint x="10" y="-19" as="offset"/>
                    </mxGeometry>
                </mxCell>
                <mxCell id="68" value="" style="endArrow=open;startArrow=none;endFill=0;startFill=0;endSize=8;html=1;verticalAlign=bottom;labelBackgroundColor=none;strokeWidth=1;" parent="45" edge="1">
                    <mxGeometry width="160" relative="1" as="geometry">
                        <mxPoint x="60.569999999999936" y="690" as="sourcePoint"/>
                        <mxPoint x="59.99857142857127" y="720" as="targetPoint"/>
                        <Array as="points">
                            <mxPoint x="95" y="690"/>
                            <mxPoint x="95" y="720"/>
                        </Array>
                    </mxGeometry>
                </mxCell>
                <mxCell id="69" value="__ratingtask" style="edgeLabel;html=1;align=center;verticalAlign=middle;resizable=0;points=[];" parent="68" vertex="1" connectable="0">
                    <mxGeometry x="-0.1202" relative="1" as="geometry">
                        <mxPoint x="10" y="-19" as="offset"/>
                    </mxGeometry>
                </mxCell>
                <mxCell id="74" value="" style="html=1;points=[];perimeter=orthogonalPerimeter;" parent="45" vertex="1">
                    <mxGeometry x="50" y="370" width="10" height="380" as="geometry"/>
                </mxCell>
                <mxCell id="92" value="" style="html=1;points=[];perimeter=orthogonalPerimeter;" vertex="1" parent="45">
                    <mxGeometry x="50" y="160" width="10" height="20" as="geometry"/>
                </mxCell>
                <mxCell id="99" value="" style="html=1;points=[];perimeter=orthogonalPerimeter;" vertex="1" parent="45">
                    <mxGeometry x="50" y="221" width="10" height="20" as="geometry"/>
                </mxCell>
                <mxCell id="100" value="" style="html=1;points=[];perimeter=orthogonalPerimeter;" vertex="1" parent="45">
                    <mxGeometry x="50" y="280" width="10" height="20" as="geometry"/>
                </mxCell>
                <mxCell id="101" value="" style="html=1;points=[];perimeter=orthogonalPerimeter;" vertex="1" parent="45">
                    <mxGeometry x="50" y="830" width="10" height="20" as="geometry"/>
                </mxCell>
                <mxCell id="55" value="create predefined positions for graph, ioa maps are the agreement bars" style="shape=note2;boundedLbl=1;whiteSpace=wrap;html=1;size=25;verticalAlign=top;align=center;" parent="1" vertex="1">
                    <mxGeometry x="810" y="490" width="120" height="100" as="geometry"/>
                </mxCell>
                <mxCell id="80" value="load, validate, parse and delimite the exported dataset by Audacity" style="shape=note2;boundedLbl=1;whiteSpace=wrap;html=1;size=25;verticalAlign=top;align=center;" vertex="1" parent="1">
                    <mxGeometry x="570" y="210" width="120" height="120" as="geometry"/>
                </mxCell>
                <mxCell id="102" value="generate the graph from all generated data of object initialization, and calculate Cohen's Kappa" style="shape=note2;boundedLbl=1;whiteSpace=wrap;html=1;size=25;verticalAlign=top;align=center;" vertex="1" parent="1">
                    <mxGeometry x="760" y="1160" width="120" height="140" as="geometry"/>
                </mxCell>
            </root>
        </mxGraphModel>
    </diagram>
</mxfile>